<svg xmlns="http://www.w3.org/2000/svg" xmlns:xlink="http://www.w3.org/1999/xlink" version="1.1" class="marks" width="546" height="347" viewBox="0 0 546 347"><rect width="546" height="347" fill="white"/><g fill="none" stroke-miterlimit="10" transform="translate(41,10)"><g class="mark-group role-frame root" role="graphics-object" aria-roledescription="group mark container"><g transform="translate(0,0)"><path class="background" aria-hidden="true" d="M0.5,0.5h400v300h-400Z" stroke="#ddd"/><g><g class="mark-group role-axis" role="graphics-symbol" aria-roledescription="axis" aria-label="X-axis for a linear scale with values from 0 to 10,000"><g transform="translate(0.5,300.5)"><path class="background" aria-hidden="true" d="M0,0h0v0h0Z" pointer-events="none"/><g><g class="mark-rule role-axis-grid" pointer-events="none"><line transform="translate(0,-300)" x2="0" y2="300" stroke="#ddd" stroke-width="1" opacity="1"/><line transform="translate(40,-300)" x2="0" y2="300" stroke="#ddd" stroke-width="1" opacity="1"/><line transform="translate(80,-300)" x2="0" y2="300" stroke="#ddd" stroke-width="1" opacity="1"/><line transform="translate(120,-300)" x2="0" y2="300" stroke="#ddd" stroke-width="1" opacity="1"/><line transform="translate(160,-300)" x2="0" y2="300" stroke="#ddd" stroke-width="1" opacity="1"/><line transform="translate(200,-300)" x2="0" y2="300" stroke="#ddd" stroke-width="1" opacity="1"/><line transform="translate(240,-300)" x2="0" y2="300" stroke="#ddd" stroke-width="1" opacity="1"/><line transform="translate(280,-300)" x2="0" y2="300" stroke="#ddd" stroke-width="1" opacity="1"/><line transform="translate(320,-300)" x2="0" y2="300" stroke="#ddd" stroke-width="1" opacity="1"/><line transform="translate(360,-300)" x2="0" y2="300" stroke="#ddd" stroke-width="1" opacity="1"/><line transform="translate(400,-300)" x2="0" y2="300" stroke="#ddd" stroke-width="1" opacity="1"/></g></g><path class="foreground" aria-hidden="true" d="" pointer-events="none" display="none"/></g></g><g class="mark-group role-axis" role="graphics-symbol" aria-roledescription="axis" aria-label="Y-axis for a linear scale with values from 0.0 to 1.1"><g transform="translate(0.5,0.5)"><path class="background" aria-hidden="true" d="M0,0h0v0h0Z" pointer-events="none"/><g><g class="mark-rule role-axis-grid" pointer-events="none"><line transform="translate(0,300)" x2="400" y2="0" stroke="#ddd" stroke-width="1" opacity="1"/><line transform="translate(0,273)" x2="400" y2="0" stroke="#ddd" stroke-width="1" opacity="1"/><line transform="translate(0,245)" x2="400" y2="0" stroke="#ddd" stroke-width="1" opacity="1"/><line transform="translate(0,218)" x2="400" y2="0" stroke="#ddd" stroke-width="1" opacity="1"/><line transform="translate(0,191)" x2="400" y2="0" stroke="#ddd" stroke-width="1" opacity="1"/><line transform="translate(0,164)" x2="400" y2="0" stroke="#ddd" stroke-width="1" opacity="1"/><line transform="translate(0,136)" x2="400" y2="0" stroke="#ddd" stroke-width="1" opacity="1"/><line transform="translate(0,109)" x2="400" y2="0" stroke="#ddd" stroke-width="1" opacity="1"/><line transform="translate(0,82)" x2="400" y2="0" stroke="#ddd" stroke-width="1" opacity="1"/><line transform="translate(0,55)" x2="400" y2="0" stroke="#ddd" stroke-width="1" opacity="1"/><line transform="translate(0,27)" x2="400" y2="0" stroke="#ddd" stroke-width="1" opacity="1"/><line transform="translate(0,0)" x2="400" y2="0" stroke="#ddd" stroke-width="1" opacity="1"/></g></g><path class="foreground" aria-hidden="true" d="" pointer-events="none" display="none"/></g></g><g class="mark-group role-axis" role="graphics-symbol" aria-roledescription="axis" aria-label="X-axis titled 'n' for a linear scale with values from 0 to 10,000"><g transform="translate(0.5,300.5)"><path class="background" aria-hidden="true" d="M0,0h0v0h0Z" pointer-events="none"/><g><g class="mark-rule role-axis-tick" pointer-events="none"><line transform="translate(0,0)" x2="0" y2="5" stroke="#888" stroke-width="1" opacity="1"/><line transform="translate(40,0)" x2="0" y2="5" stroke="#888" stroke-width="1" opacity="1"/><line transform="translate(80,0)" x2="0" y2="5" stroke="#888" stroke-width="1" opacity="1"/><line transform="translate(120,0)" x2="0" y2="5" stroke="#888" stroke-width="1" opacity="1"/><line transform="translate(160,0)" x2="0" y2="5" stroke="#888" stroke-width="1" opacity="1"/><line transform="translate(200,0)" x2="0" y2="5" stroke="#888" stroke-width="1" opacity="1"/><line transform="translate(240,0)" x2="0" y2="5" stroke="#888" stroke-width="1" opacity="1"/><line transform="translate(280,0)" x2="0" y2="5" stroke="#888" stroke-width="1" opacity="1"/><line transform="translate(320,0)" x2="0" y2="5" stroke="#888" stroke-width="1" opacity="1"/><line transform="translate(360,0)" x2="0" y2="5" stroke="#888" stroke-width="1" opacity="1"/><line transform="translate(400,0)" x2="0" y2="5" stroke="#888" stroke-width="1" opacity="1"/></g><g class="mark-text role-axis-label" pointer-events="none"><text text-anchor="start" transform="translate(0,15)" font-family="sans-serif" font-size="10px" fill="#000" opacity="1">0</text><text text-anchor="middle" transform="translate(40,15)" font-family="sans-serif" font-size="10px" fill="#000" opacity="0">1,000</text><text text-anchor="middle" transform="translate(80,15)" font-family="sans-serif" font-size="10px" fill="#000" opacity="1">2,000</text><text text-anchor="middle" transform="translate(120,15)" font-family="sans-serif" font-size="10px" fill="#000" opacity="0">3,000</text><text text-anchor="middle" transform="translate(160,15)" font-family="sans-serif" font-size="10px" fill="#000" opacity="1">4,000</text><text text-anchor="middle" transform="translate(200,15)" font-family="sans-serif" font-size="10px" fill="#000" opacity="0">5,000</text><text text-anchor="middle" transform="translate(240,15)" font-family="sans-serif" font-size="10px" fill="#000" opacity="1">6,000</text><text text-anchor="middle" transform="translate(280,15)" font-family="sans-serif" font-size="10px" fill="#000" opacity="0">7,000</text><text text-anchor="middle" transform="translate(320,15)" font-family="sans-serif" font-size="10px" fill="#000" opacity="1">8,000</text><text text-anchor="middle" transform="translate(360,15)" font-family="sans-serif" font-size="10px" fill="#000" opacity="0">9,000</text><text text-anchor="end" transform="translate(400,15)" font-family="sans-serif" font-size="10px" fill="#000" opacity="1">10,000</text></g><g class="mark-rule role-axis-domain" pointer-events="none"><line transform="translate(0,0)" x2="400" y2="0" stroke="#888" stroke-width="1" opacity="1"/></g><g class="mark-text role-axis-title" pointer-events="none"><text text-anchor="middle" transform="translate(200,30)" font-family="sans-serif" font-size="11px" font-weight="bold" fill="#000" opacity="1">n</text></g></g><path class="foreground" aria-hidden="true" d="" pointer-events="none" display="none"/></g></g><g class="mark-group role-axis" role="graphics-symbol" aria-roledescription="axis" aria-label="Y-axis titled 'Time' for a linear scale with values from 0.0 to 1.1"><g transform="translate(0.5,0.5)"><path class="background" aria-hidden="true" d="M0,0h0v0h0Z" pointer-events="none"/><g><g class="mark-rule role-axis-tick" pointer-events="none"><line transform="translate(0,300)" x2="-5" y2="0" stroke="#888" stroke-width="1" opacity="1"/><line transform="translate(0,273)" x2="-5" y2="0" stroke="#888" stroke-width="1" opacity="1"/><line transform="translate(0,245)" x2="-5" y2="0" stroke="#888" stroke-width="1" opacity="1"/><line transform="translate(0,218)" x2="-5" y2="0" stroke="#888" stroke-width="1" opacity="1"/><line transform="translate(0,191)" x2="-5" y2="0" stroke="#888" stroke-width="1" opacity="1"/><line transform="translate(0,164)" x2="-5" y2="0" stroke="#888" stroke-width="1" opacity="1"/><line transform="translate(0,136)" x2="-5" y2="0" stroke="#888" stroke-width="1" opacity="1"/><line transform="translate(0,109)" x2="-5" y2="0" stroke="#888" stroke-width="1" opacity="1"/><line transform="translate(0,82)" x2="-5" y2="0" stroke="#888" stroke-width="1" opacity="1"/><line transform="translate(0,55)" x2="-5" y2="0" stroke="#888" stroke-width="1" opacity="1"/><line transform="translate(0,27)" x2="-5" y2="0" stroke="#888" stroke-width="1" opacity="1"/><line transform="translate(0,0)" x2="-5" y2="0" stroke="#888" stroke-width="1" opacity="1"/></g><g class="mark-text role-axis-label" pointer-events="none"><text text-anchor="end" transform="translate(-7,303)" font-family="sans-serif" font-size="10px" fill="#000" opacity="1">0.0</text><text text-anchor="end" transform="translate(-7,275.7272727272727)" font-family="sans-serif" font-size="10px" fill="#000" opacity="1">0.1</text><text text-anchor="end" transform="translate(-7,248.45454545454544)" font-family="sans-serif" font-size="10px" fill="#000" opacity="1">0.2</text><text text-anchor="end" transform="translate(-7,221.1818181818182)" font-family="sans-serif" font-size="10px" fill="#000" opacity="1">0.3</text><text text-anchor="end" transform="translate(-7,193.9090909090909)" font-family="sans-serif" font-size="10px" fill="#000" opacity="1">0.4</text><text text-anchor="end" transform="translate(-7,166.63636363636363)" font-family="sans-serif" font-size="10px" fill="#000" opacity="1">0.5</text><text text-anchor="end" transform="translate(-7,139.36363636363637)" font-family="sans-serif" font-size="10px" fill="#000" opacity="1">0.6</text><text text-anchor="end" transform="translate(-7,112.09090909090912)" font-family="sans-serif" font-size="10px" fill="#000" opacity="1">0.7</text><text text-anchor="end" transform="translate(-7,84.81818181818181)" font-family="sans-serif" font-size="10px" fill="#000" opacity="1">0.8</text><text text-anchor="end" transform="translate(-7,57.54545454545456)" font-family="sans-serif" font-size="10px" fill="#000" opacity="1">0.9</text><text text-anchor="end" transform="translate(-7,30.27272727272728)" font-family="sans-serif" font-size="10px" fill="#000" opacity="1">1.0</text><text text-anchor="end" transform="translate(-7,3)" font-family="sans-serif" font-size="10px" fill="#000" opacity="1">1.1</text></g><g class="mark-rule role-axis-domain" pointer-events="none"><line transform="translate(0,300)" x2="0" y2="-300" stroke="#888" stroke-width="1" opacity="1"/></g><g class="mark-text role-axis-title" pointer-events="none"><text text-anchor="middle" transform="translate(-24.9013671875,150) rotate(-90) translate(0,-2)" font-family="sans-serif" font-size="11px" font-weight="bold" fill="#000" opacity="1">Time</text></g></g><path class="foreground" aria-hidden="true" d="" pointer-events="none" display="none"/></g></g><g class="mark-group role-scope pathgroup" role="graphics-object" aria-roledescription="group mark container"><g transform="translate(0,0)"><path class="background" aria-hidden="true" d="M0,0h400v300h-400Z"/><g><g class="mark-line role-mark marks" role="graphics-symbol" aria-roledescription="line mark container"><path d="M4,299.9980362978848L8,299.99616362831813L12,299.99397234483195L16,299.99151446602565L20,299.988900531422L24,299.9864361502908L28.000000000000004,299.9838612296365L32,299.98156590895223L36,299.97886094180024L40,299.97689723968506L44,299.97419227253306L48,299.97103214263916L52,299.96904243122447L56.00000000000001,299.9663764780218L60,299.96408115733755L64,299.9625531109897L68,299.9587362462824L72,299.95705214413726L76,299.95530301874334L80,299.9526565725153L84,299.94809844277125L88,299.94720112193716L92,299.9449123035778L96,299.94264299219304L100,299.94019161571157L104,299.93822791359645L108,299.93640076030385L112.00000000000001,299.93135495619345L115.99999999999999,299.9329935420643L120,299.9280582774769L124,299.92548985914755L128,299.9234741384333L132,299.9213153665716L136,299.9195792458274L140,299.9166792089289L144,299.90932507948446L148,299.9121535908092L152,299.9041882428256L156,299.9061844565652L160,299.9062949960882L164,299.9034014615146L168,299.9009110710837L172,299.8977574435147L176,299.8946688391946L180,299.89667155525905L184,299.89028627222234L188,299.88948648626155L192,299.88670349121094L196,299.88286711952907L200,299.883822961287L204,299.87999309193003L208,299.8792388222434L212,299.8761307109486L216,299.8725349252874L220.00000000000003,299.87157258120453L224.00000000000003,299.8671770095825L227.99999999999997,299.8662861910733L231.99999999999997,299.8653823679144L236,299.85469254580414L240,299.85923767089844L244,299.8513633554632L248,299.85466653650457L252,299.8524882576682L256,299.84819672324437L260,299.84533570029515L264,299.8446269468827L268,299.83639500357884L272,299.8381051150235L276,299.83635598962957L280,299.83505552465266L284,299.83112812042236L288,299.8329812830145L292,299.8300617391413L296,299.8261863535101L300,299.8222394423051L304,299.821907823736L308,299.81735619631684L312,299.81694654984904L316,299.8155615546487L320,299.81413754549897L324,299.8093583367087L328,299.80616569519043L332,299.8031941327182L336,299.803707816384L340,299.79785572398794L344,299.79344714771617L348,299.7918280688199L352,299.7923482548107L356,299.78997490622777L360,299.79121685028076L364,299.78803721341217L368,299.784272367304L372,299.78198354894465L376,299.7799873352051L380,299.77830323306L384,299.7745643962513L388,299.7726267034357L392,299.76858875968236L396,299.7671192342585L400,299.7652595693415" stroke="#f58518" stroke-width="2"/></g></g><path class="foreground" aria-hidden="true" d="" display="none"/></g><g transform="translate(0,0)"><path class="background" aria-hidden="true" d="M0,0h400v300h-400Z"/><g><g class="mark-line role-mark marks" role="graphics-symbol" aria-roledescription="line mark container"><path d="M4,299.9744978818027L8,299.8991749503396L12,299.775032563643L16,299.59014545787466L20,299.3473096327348L24,299.06774217432195L28.000000000000004,298.6873951825229L32,298.2627283443104L36,297.79590043154633L40,297.2953059456565L44,296.6789960861206L48,296.0183468731967L52,295.37410302595663L56.00000000000001,294.4616447795521L60,293.73342990875244L64,292.82726591283625L68,291.7786944996227L72,290.8994696357034L76,289.77378715168345L80,288.7856223366477L84,286.7428974671798L88,286.1634037711404L92,284.3924435702237L96,283.43846797943115L100,281.9099209525369L104,280.8034073222767L108,279.09408916126597L112.00000000000001,277.3972814733332L115.99999999999999,276.42108743841L120,274.5473384857178L124,273.02757609974253L128,271.13994468342173L132,268.95463033155966L136,267.13252284310084L140,264.9625604802912L144,263.33640705455434L148,261.011097647927L152,259.067702293396L156,255.89629086581144L160,254.3257453224876L164,251.4976956627586L168,250.10234225880015L172,247.13784131136808L176,244.830660386519L180,242.615591395985L184,240.00032381577927L188,236.9843439622359L192,234.5704338767312L196,231.6948262127963L200,229.34118617664683L204,225.75673406774348L208,222.7514765479348L212,218.51683746684682L216,216.88578779047185L220.00000000000003,213.99114782159978L224.00000000000003,210.81381927837026L227.99999999999997,207.3675805872137L231.99999999999997,203.13478166406804L236,200.82855658097702L240,197.46180230920965L244,193.61643140966243L248,189.35863104733556L252,186.83215271342885L256,183.02143920551646L260,179.21702645041728L264,175.62542828646573L268,170.2764857899059L272,166.84314771132037L276,163.3071769367565L280,160.79290996898305L284,155.86573427373713L288,151.36466893282807L292,148.65209406072447L296,144.2008885470304L300,139.92463458668104L304,136.12180839885366L308,131.92038969560105L312,126.14108432422984L316,122.67630100250244L320,117.71189949729228L324,110.01771796833387L328,108.30789912830701L332,102.30335972525859L336,96.38028795068917L340,89.75233164700597L344,82.5553113763983L348,80.99402514371008L352,76.45562995563856L356,71.95317311720416L360,68.36615258997139L364,64.783391085538L368,58.22335156527436L372,52.15960199182687L376,46.096392111344784L380,41.262407736344784L384,35.07668105038733L388,31.42202984202993L392,25.697857683355217L396,19.61993954398421L400,12.599645961414696" stroke="#e45756" stroke-width="2"/></g></g><path class="foreground" aria-hidden="true" d="" display="none"/></g><g transform="translate(0,0)"><path class="background" aria-hidden="true" d="M0,0h400v300h-400Z"/><g><g class="mark-line role-mark marks" role="graphics-symbol" aria-roledescription="line mark container"><path d="M4,299.98717741532755L8,299.9480139125477L12,299.8877958817916L16,299.78007186542857L20,299.6607281944968L24,299.4988398118453L28.000000000000004,299.2957657033747L32,299.083854935386L36,298.8901376724243L40,298.55647737329656L44,298.32946170460093L48,297.9709300127896L52,297.610389102589L56.00000000000001,297.149133682251L60,296.89045169136745L64,296.36705355210734L68,295.7231738350608L72,295.3202962875366L76,294.7378830476241L80,294.04592514038086L84,293.3438171039928L88,292.9883935234763L92,292.32018860903656L96,291.96215759624135L100,290.79188216816294L104,290.3728918595748L108,289.5323428240689L112.00000000000001,288.3426514538852L115.99999999999999,287.7519282427701L120,286.80626912550497L124,286.3124500621449L128,284.9771976470947L132,284.24896326932037L136,283.1436005505649L140,282.4963851408525L144,281.346006826921L148,280.3060379895297L152,278.7507078864358L156,278.0734582380815L160,276.4009562405673L164,275.40215362202036L168,274.2789290168069L172,273.2266642830588L176,272.07679315046835L180,270.85635878823024L184,269.9249787764116L188,267.68086390061814L192,267.09949753501195L196,265.15006152066314L200,263.4013392708518L204,261.9541623375632L208,260.83377274599945L212,259.49697277762675L216,257.7436403794722L220.00000000000003,257.0915677330711L224.00000000000003,255.46945225108755L227.99999999999997,252.93098363009366L231.99999999999997,251.35950175198641L236,249.24681836908513L240,248.4050143848766L244,247.15895436026835L248,244.9944539503618L252,242.991549318487L256,240.91388745741412L260,238.54205391623756L264,235.63145724209872L268,235.2338985963301L272,233.54705247012052L276,230.8412465182218L280,229.74542271007192L284,227.55889242345637L288,224.80983300642535L292,224.98685880140826L296,221.40725092454392L300,220.3972968188199L304,216.73415357416326L308,214.31228464299983L312,212.22016161138362L316,210.2468490600586L320,208.9286977594549L324,206.03135282343084L328,202.18949968164617L332,200.5387934771451L336,196.6084892099554L340,194.3727038123391L344,190.8642508766868L348,191.0355806350708L352,187.71621530706233L356,187.6142133365978L360,185.00074690038508L364,180.89004213159734L368,176.69102928855204L372,175.01010027798742L376,171.10854278911245L380,170.0927170840177L384,166.32796851071447L388,163.8221480629661L392,163.7723207473755L396,158.41701897707856L400,157.17599175193095" stroke="#4c78a8" stroke-width="2"/></g></g><path class="foreground" aria-hidden="true" d="" display="none"/></g></g><g class="mark-group role-legend" role="graphics-symbol" aria-roledescription="legend" aria-label="Symbol legend titled 'Cases' for stroke color with 3 values: Average Case, Best Case, Worst Case"><g transform="translate(420,0)"><path class="background" aria-hidden="true" d="M0,0h80v53h-80Z" pointer-events="none"/><g><g class="mark-group role-legend-entry"><g transform="translate(0,16)"><path class="background" aria-hidden="true" d="M0,0h0v0h0Z" pointer-events="none"/><g><g class="mark-group role-scope" role="graphics-object" aria-roledescription="group mark container"><g transform="translate(0,0)"><path class="background" aria-hidden="true" d="M0,0h79.193359375v11h-79.193359375Z" pointer-events="none" opacity="1"/><g><g class="mark-symbol role-legend-symbol" pointer-events="none"><path transform="translate(6,6)" d="M-5,0L5,0" stroke="#4c78a8" stroke-width="1.5" opacity="1"/></g><g class="mark-text role-legend-label" pointer-events="none"><text text-anchor="start" transform="translate(16,9)" font-family="sans-serif" font-size="10px" fill="#000" opacity="1">Average Case</text></g></g><path class="foreground" aria-hidden="true" d="" pointer-events="none" display="none"/></g><g transform="translate(0,13)"><path class="background" aria-hidden="true" d="M0,0h79.193359375v11h-79.193359375Z" pointer-events="none" opacity="1"/><g><g class="mark-symbol role-legend-symbol" pointer-events="none"><path transform="translate(6,6)" d="M-5,0L5,0" stroke="#f58518" stroke-width="1.5" opacity="1"/></g><g class="mark-text role-legend-label" pointer-events="none"><text text-anchor="start" transform="translate(16,9)" font-family="sans-serif" font-size="10px" fill="#000" opacity="1">Best Case</text></g></g><path class="foreground" aria-hidden="true" d="" pointer-events="none" display="none"/></g><g transform="translate(0,26)"><path class="background" aria-hidden="true" d="M0,0h79.193359375v11h-79.193359375Z" pointer-events="none" opacity="1"/><g><g class="mark-symbol role-legend-symbol" pointer-events="none"><path transform="translate(6,6)" d="M-5,0L5,0" stroke="#e45756" stroke-width="1.5" opacity="1"/></g><g class="mark-text role-legend-label" pointer-events="none"><text text-anchor="start" transform="translate(16,9)" font-family="sans-serif" font-size="10px" fill="#000" opacity="1">Worst Case</text></g></g><path class="foreground" aria-hidden="true" d="" pointer-events="none" display="none"/></g></g></g><path class="foreground" aria-hidden="true" d="" pointer-events="none" display="none"/></g></g><g class="mark-text role-legend-title" pointer-events="none"><text text-anchor="start" transform="translate(0,9)" font-family="sans-serif" font-size="11px" font-weight="bold" fill="#000" opacity="1">Cases</text></g></g><path class="foreground" aria-hidden="true" d="" pointer-events="none" display="none"/></g></g></g><path class="foreground" aria-hidden="true" d="" display="none"/></g></g></g></svg>