<svg xmlns="http://www.w3.org/2000/svg" xmlns:xlink="http://www.w3.org/1999/xlink" version="1.1" class="marks" width="558" height="347" viewBox="0 0 558 347"><rect width="558" height="347" fill="white"/><g fill="none" stroke-miterlimit="10" transform="translate(53,10)"><g class="mark-group role-frame root" role="graphics-object" aria-roledescription="group mark container"><g transform="translate(0,0)"><path class="background" aria-hidden="true" d="M0.5,0.5h400v300h-400Z" stroke="#ddd"/><g><g class="mark-group role-axis" role="graphics-symbol" aria-roledescription="axis" aria-label="X-axis for a linear scale with values from 0 to 10,000"><g transform="translate(0.5,300.5)"><path class="background" aria-hidden="true" d="M0,0h0v0h0Z" pointer-events="none"/><g><g class="mark-rule role-axis-grid" pointer-events="none"><line transform="translate(0,-300)" x2="0" y2="300" stroke="#ddd" stroke-width="1" opacity="1"/><line transform="translate(40,-300)" x2="0" y2="300" stroke="#ddd" stroke-width="1" opacity="1"/><line transform="translate(80,-300)" x2="0" y2="300" stroke="#ddd" stroke-width="1" opacity="1"/><line transform="translate(120,-300)" x2="0" y2="300" stroke="#ddd" stroke-width="1" opacity="1"/><line transform="translate(160,-300)" x2="0" y2="300" stroke="#ddd" stroke-width="1" opacity="1"/><line transform="translate(200,-300)" x2="0" y2="300" stroke="#ddd" stroke-width="1" opacity="1"/><line transform="translate(240,-300)" x2="0" y2="300" stroke="#ddd" stroke-width="1" opacity="1"/><line transform="translate(280,-300)" x2="0" y2="300" stroke="#ddd" stroke-width="1" opacity="1"/><line transform="translate(320,-300)" x2="0" y2="300" stroke="#ddd" stroke-width="1" opacity="1"/><line transform="translate(360,-300)" x2="0" y2="300" stroke="#ddd" stroke-width="1" opacity="1"/><line transform="translate(400,-300)" x2="0" y2="300" stroke="#ddd" stroke-width="1" opacity="1"/></g></g><path class="foreground" aria-hidden="true" d="" pointer-events="none" display="none"/></g></g><g class="mark-group role-axis" role="graphics-symbol" aria-roledescription="axis" aria-label="Y-axis for a linear scale with values from 0.000 to 0.035"><g transform="translate(0.5,0.5)"><path class="background" aria-hidden="true" d="M0,0h0v0h0Z" pointer-events="none"/><g><g class="mark-rule role-axis-grid" pointer-events="none"><line transform="translate(0,300)" x2="400" y2="0" stroke="#ddd" stroke-width="1" opacity="1"/><line transform="translate(0,257)" x2="400" y2="0" stroke="#ddd" stroke-width="1" opacity="1"/><line transform="translate(0,214)" x2="400" y2="0" stroke="#ddd" stroke-width="1" opacity="1"/><line transform="translate(0,171)" x2="400" y2="0" stroke="#ddd" stroke-width="1" opacity="1"/><line transform="translate(0,129)" x2="400" y2="0" stroke="#ddd" stroke-width="1" opacity="1"/><line transform="translate(0,86)" x2="400" y2="0" stroke="#ddd" stroke-width="1" opacity="1"/><line transform="translate(0,43)" x2="400" y2="0" stroke="#ddd" stroke-width="1" opacity="1"/><line transform="translate(0,0)" x2="400" y2="0" stroke="#ddd" stroke-width="1" opacity="1"/></g></g><path class="foreground" aria-hidden="true" d="" pointer-events="none" display="none"/></g></g><g class="mark-group role-axis" role="graphics-symbol" aria-roledescription="axis" aria-label="X-axis titled 'n' for a linear scale with values from 0 to 10,000"><g transform="translate(0.5,300.5)"><path class="background" aria-hidden="true" d="M0,0h0v0h0Z" pointer-events="none"/><g><g class="mark-rule role-axis-tick" pointer-events="none"><line transform="translate(0,0)" x2="0" y2="5" stroke="#888" stroke-width="1" opacity="1"/><line transform="translate(40,0)" x2="0" y2="5" stroke="#888" stroke-width="1" opacity="1"/><line transform="translate(80,0)" x2="0" y2="5" stroke="#888" stroke-width="1" opacity="1"/><line transform="translate(120,0)" x2="0" y2="5" stroke="#888" stroke-width="1" opacity="1"/><line transform="translate(160,0)" x2="0" y2="5" stroke="#888" stroke-width="1" opacity="1"/><line transform="translate(200,0)" x2="0" y2="5" stroke="#888" stroke-width="1" opacity="1"/><line transform="translate(240,0)" x2="0" y2="5" stroke="#888" stroke-width="1" opacity="1"/><line transform="translate(280,0)" x2="0" y2="5" stroke="#888" stroke-width="1" opacity="1"/><line transform="translate(320,0)" x2="0" y2="5" stroke="#888" stroke-width="1" opacity="1"/><line transform="translate(360,0)" x2="0" y2="5" stroke="#888" stroke-width="1" opacity="1"/><line transform="translate(400,0)" x2="0" y2="5" stroke="#888" stroke-width="1" opacity="1"/></g><g class="mark-text role-axis-label" pointer-events="none"><text text-anchor="start" transform="translate(0,15)" font-family="sans-serif" font-size="10px" fill="#000" opacity="1">0</text><text text-anchor="middle" transform="translate(40,15)" font-family="sans-serif" font-size="10px" fill="#000" opacity="0">1,000</text><text text-anchor="middle" transform="translate(80,15)" font-family="sans-serif" font-size="10px" fill="#000" opacity="1">2,000</text><text text-anchor="middle" transform="translate(120,15)" font-family="sans-serif" font-size="10px" fill="#000" opacity="0">3,000</text><text text-anchor="middle" transform="translate(160,15)" font-family="sans-serif" font-size="10px" fill="#000" opacity="1">4,000</text><text text-anchor="middle" transform="translate(200,15)" font-family="sans-serif" font-size="10px" fill="#000" opacity="0">5,000</text><text text-anchor="middle" transform="translate(240,15)" font-family="sans-serif" font-size="10px" fill="#000" opacity="1">6,000</text><text text-anchor="middle" transform="translate(280,15)" font-family="sans-serif" font-size="10px" fill="#000" opacity="0">7,000</text><text text-anchor="middle" transform="translate(320,15)" font-family="sans-serif" font-size="10px" fill="#000" opacity="1">8,000</text><text text-anchor="middle" transform="translate(360,15)" font-family="sans-serif" font-size="10px" fill="#000" opacity="0">9,000</text><text text-anchor="end" transform="translate(400,15)" font-family="sans-serif" font-size="10px" fill="#000" opacity="1">10,000</text></g><g class="mark-rule role-axis-domain" pointer-events="none"><line transform="translate(0,0)" x2="400" y2="0" stroke="#888" stroke-width="1" opacity="1"/></g><g class="mark-text role-axis-title" pointer-events="none"><text text-anchor="middle" transform="translate(200,30)" font-family="sans-serif" font-size="11px" font-weight="bold" fill="#000" opacity="1">n</text></g></g><path class="foreground" aria-hidden="true" d="" pointer-events="none" display="none"/></g></g><g class="mark-group role-axis" role="graphics-symbol" aria-roledescription="axis" aria-label="Y-axis titled 'Time' for a linear scale with values from 0.000 to 0.035"><g transform="translate(0.5,0.5)"><path class="background" aria-hidden="true" d="M0,0h0v0h0Z" pointer-events="none"/><g><g class="mark-rule role-axis-tick" pointer-events="none"><line transform="translate(0,300)" x2="-5" y2="0" stroke="#888" stroke-width="1" opacity="1"/><line transform="translate(0,257)" x2="-5" y2="0" stroke="#888" stroke-width="1" opacity="1"/><line transform="translate(0,214)" x2="-5" y2="0" stroke="#888" stroke-width="1" opacity="1"/><line transform="translate(0,171)" x2="-5" y2="0" stroke="#888" stroke-width="1" opacity="1"/><line transform="translate(0,129)" x2="-5" y2="0" stroke="#888" stroke-width="1" opacity="1"/><line transform="translate(0,86)" x2="-5" y2="0" stroke="#888" stroke-width="1" opacity="1"/><line transform="translate(0,43)" x2="-5" y2="0" stroke="#888" stroke-width="1" opacity="1"/><line transform="translate(0,0)" x2="-5" y2="0" stroke="#888" stroke-width="1" opacity="1"/></g><g class="mark-text role-axis-label" pointer-events="none"><text text-anchor="end" transform="translate(-7,303)" font-family="sans-serif" font-size="10px" fill="#000" opacity="1">0.000</text><text text-anchor="end" transform="translate(-7,260.14285714285717)" font-family="sans-serif" font-size="10px" fill="#000" opacity="1">0.005</text><text text-anchor="end" transform="translate(-7,217.28571428571428)" font-family="sans-serif" font-size="10px" fill="#000" opacity="1">0.010</text><text text-anchor="end" transform="translate(-7,174.42857142857144)" font-family="sans-serif" font-size="10px" fill="#000" opacity="1">0.015</text><text text-anchor="end" transform="translate(-7,131.57142857142858)" font-family="sans-serif" font-size="10px" fill="#000" opacity="1">0.020</text><text text-anchor="end" transform="translate(-7,88.71428571428571)" font-family="sans-serif" font-size="10px" fill="#000" opacity="1">0.025</text><text text-anchor="end" transform="translate(-7,45.857142857142904)" font-family="sans-serif" font-size="10px" fill="#000" opacity="1">0.030</text><text text-anchor="end" transform="translate(-7,3)" font-family="sans-serif" font-size="10px" fill="#000" opacity="1">0.035</text></g><g class="mark-rule role-axis-domain" pointer-events="none"><line transform="translate(0,300)" x2="0" y2="-300" stroke="#888" stroke-width="1" opacity="1"/></g><g class="mark-text role-axis-title" pointer-events="none"><text text-anchor="middle" transform="translate(-36.0244140625,150) rotate(-90) translate(0,-2)" font-family="sans-serif" font-size="11px" font-weight="bold" fill="#000" opacity="1">Time</text></g></g><path class="foreground" aria-hidden="true" d="" pointer-events="none" display="none"/></g></g><g class="mark-group role-scope pathgroup" role="graphics-object" aria-roledescription="group mark container"><g transform="translate(0,0)"><path class="background" aria-hidden="true" d="M0,0h400v300h-400Z"/><g><g class="mark-line role-mark marks" role="graphics-symbol" aria-roledescription="line mark container"><path d="M4,298.74503271920344L8,297.6907457624163L12,296.30744116646906L16,295.05696977887834L20,293.57230322701594L24,292.12523869105746L28.000000000000004,290.6836918422154L32,289.18962478637695L36,286.77430834089006L40,285.95666885375977L44,284.56028529575894L48,282.9519816807338L52,281.7873409816197L56.00000000000001,280.4628917149135L60,278.747912815639L64,277.19376427786693L68,275.30569349016463L72,273.7071990966797L76,271.41858509608676L80,269.7487694876535L84,268.6337879725865L88,267.3890386308943L92,265.4229027884347L96,264.0882355826242L100,262.5357219151088L104,260.69056647164484L108,258.52129799979076L112.00000000000001,257.50461305890764L115.99999999999999,255.2527836390904L120,253.05756160191126L124,251.2483733040946L128,250.69108690534318L132,248.46582412719727L136,246.99341910226005L140,245.9176744733538L144,244.08008030482702L148,242.35140936715263L152,240.83384105137415L156,238.60530853271484L160,237.61519023350306L164,234.5109803336007L168,233.97535596575057L172,231.32053102765764L176,230.02959660121374L180,228.9043971470424L184,226.52504784720287L188,224.58854402814592L192,220.83774294172014L196,220.66199438912525L200,219.42439760480607L204,217.9182733808245L208,216.73380987984794L212,214.8181506565639L216,213.97803170340404L220.00000000000003,212.3648234776088L224.00000000000003,209.41633496965682L227.99999999999997,206.94338934762135L231.99999999999997,205.68433489118303L236,205.37043980189733L240,200.93728474208288L244,199.92693492344446L248,199.04451370239258L252,197.13171550205774L256,195.00699724469865L260,193.45448357718334L264,191.1693436758859L268,189.99693734305248L272,188.16588265555248L276,187.29449680873327L280,184.8094940185547L284,181.73736844744005L288,181.85385295322962L292,178.2589776175363L296,177.01892852783203L300,174.680655343192L304,172.70225797380724L308,170.87815148489818L312,169.54021453857422L316,167.9494857788086L320,168.2435580662319L324,164.4529070172991L328,162.08030155726843L332,160.25231225149975L336,157.5378145490374L340,156.5152032034738L344,152.846554347447L348,151.7777579171317L352,150.68300792149134L356,148.55318069458008L360,148.21271896362308L364,145.4835074288505L368,145.8084378923689L372,141.35648182460244L376,140.92814581734794L380,137.72931780133928L384,138.04055622645788L388,135.05160467965263L392,133.75883102416995L396,133.57102530343192L400,130.6448119027274" stroke="#4c78a8" stroke-width="2"/></g></g><path class="foreground" aria-hidden="true" d="" display="none"/></g><g transform="translate(0,0)"><path class="background" aria-hidden="true" d="M0,0h400v300h-400Z"/><g><g class="mark-line role-mark marks" role="graphics-symbol" aria-roledescription="line mark container"><path d="M4,298.81553649902344L8,297.5064141409738L12,295.9671837942941L16,294.6846280779157L20,293.28088760375977L24,291.50398799351285L28.000000000000004,289.93962151663646L32,288.45434188842773L36,284.28869247436523L40,285.4557854788644L44,283.59693799700057L48,281.6972187587193L52,280.42712892804826L56.00000000000001,278.8310868399484L60,277.27796009608676L64,275.66638674054826L68,273.6959593636649L72,272.38377162388394L76,270.22778647286555L80,269.36048780168807L84,267.3540932791574L88,265.2823039463588L92,263.20193154471264L96,261.5296636308943L100,260.2013315473284L104,257.6819964817592L108,255.85032871791296L112.00000000000001,254.30660247802734L115.99999999999999,252.56240027291432L120,250.74013301304407L124,248.9906174795968L128,247.66126360212053L132,245.17789568219865L136,242.5806999206543L140,242.9152352469308L144,240.77825546264648L148,239.50632640293665L152,238.21702684674943L156,236.3698278154646L160,235.55321012224474L164,232.30983189174108L168,231.01624080113004L172,228.6824635096959L176,226.20420455932617L180,224.6067319597517L184,221.22663770403184L188,220.3000749860491L192,214.09696851457872L196,215.449823651995L200,215.77618462698803L204,213.0565779549735L208,211.66979925973075L212,208.42274257114954L216,207.49474934169226L220.00000000000003,206.4498628888811L224.00000000000003,203.7891115461077L227.99999999999997,200.64873014177599L231.99999999999997,199.44607870919364L236,197.92278834751673L240,194.91850989205497L244,194.60400172642298L248,193.32941600254605L252,191.10946655273438L256,190.7150541033064L260,187.1759687151228L264,185.20288467407227L268,183.5786410740444L272,182.16509137834825L276,181.13144465855189L280,179.53908102852955L284,176.50476183210105L288,175.60456139700756L292,172.92848314557762L296,170.72467803955078L300,168.50902012416296L304,167.22094672066825L308,166.03382655552457L312,164.28533281598772L316,164.69670704432897L320,163.18118231637138L324,160.26007788521903L328,159.69502585274833L332,156.98645455496654L336,154.67985698154993L340,151.44874027797155L344,146.649169921875L348,147.85631724766324L352,145.34311294555664L356,141.92071642194475L360,140.83965846470426L364,137.7513885498047L368,137.87645612444197L372,132.932608468192L376,131.7884036472866L380,129.7527858189174L384,126.29319599696572L388,124.81792994907927L392,124.20955385480609L396,121.892329624721L400,119.80725697108679" stroke="#f58518" stroke-width="2"/></g></g><path class="foreground" aria-hidden="true" d="" display="none"/></g><g transform="translate(0,0)"><path class="background" aria-hidden="true" d="M0,0h400v300h-400Z"/><g><g class="mark-line role-mark marks" role="graphics-symbol" aria-roledescription="line mark container"><path d="M4,298.51390293666293L8,296.6820308140346L12,294.59327970232283L16,292.55827495029996L20,290.3665270124163L24,288.11755861554826L28.000000000000004,285.82628795078824L32,283.5333824157715L36,280.950083051409L40,278.73687744140625L44,276.13539014543807L48,273.23472159249445L52,271.4792796543666L56.00000000000001,269.40013340541293L60,266.26465661185125L64,264.0908922467913L68,260.958685193743L72,257.80440739222934L76,255.62389918736048L80,253.19059916904993L84,250.7460594177246L88,247.64307567051478L92,244.8333467755999L96,242.12395804268974L100,239.81388636997767L104,237.1823583330427L108,233.82249559674943L112.00000000000001,230.9502329145159L115.99999999999999,228.01707131522045L120,225.57150976998466L124,222.6393699645996L128,219.80736596243725L132,216.13442557198658L136,215.64682551792689L140,212.91066578456335L144,209.3911988394601L148,207.0976802280971L152,205.15872410365515L156,201.5795843941825L160,199.09969057355607L164,194.52593667166576L168,192.53057752336778L172,189.38059125627794L176,186.31868362426758L180,182.37762451171875L184,178.0815941946847L188,176.92982809884208L192,173.92657143729076L196,170.75553621564592L200,168.90670231410436L204,165.3547423226493L208,165.5374390738351L212,160.4444095066616L216,157.71948950631284L220.00000000000003,154.9682072230748L224.00000000000003,148.72974668230333L227.99999999999997,146.74971444266185L231.99999999999997,144.3873269217355L236,140.05185535975866L240,135.8148847307478L244,135.7037135532924L248,133.2935060773577L252,130.17335619245262L256,129.453604561942L260,122.35990251813617L264,121.58517837524417L268,118.62340654645648L272,116.8301582336426L276,113.37690353393555L280,108.6545807974679L284,107.12904248918805L288,102.18519483293808L292,100.58976582118444L296,96.84243883405416L300,94.09708295549665L304,90.57884216308597L308,87.12354387555804L312,85.28492791312084L316,84.35734340122771L320,81.56151090349472L324,77.15124402727402L328,75.65308979579385L332,70.99984032767162L336,67.02015740530834L340,64.57725252423971L344,55.90794427054271L348,56.621973855154884L352,51.0542188371931L356,46.752875191824806L360,43.668896811349086L364,47.0416341509138L368,36.721720014299706L372,40.97156524658207L376,34.00865282331198L380,29.389735630580372L384,27.842739650181347L388,22.674914768763966L392,21.15591594151094L396,19.86865997314453L400,14.903150285993327" stroke="#e45756" stroke-width="2"/></g></g><path class="foreground" aria-hidden="true" d="" display="none"/></g></g><g class="mark-group role-legend" role="graphics-symbol" aria-roledescription="legend" aria-label="Symbol legend titled 'Cases' for stroke color with 3 values: Best Case, Reverse Case, Worst Case"><g transform="translate(420,0)"><path class="background" aria-hidden="true" d="M0,0h80v53h-80Z" pointer-events="none"/><g><g class="mark-group role-legend-entry"><g transform="translate(0,16)"><path class="background" aria-hidden="true" d="M0,0h0v0h0Z" pointer-events="none"/><g><g class="mark-group role-scope" role="graphics-object" aria-roledescription="group mark container"><g transform="translate(0,0)"><path class="background" aria-hidden="true" d="M0,0h79.359375v11h-79.359375Z" pointer-events="none" opacity="1"/><g><g class="mark-symbol role-legend-symbol" pointer-events="none"><path transform="translate(6,6)" d="M-5,0L5,0" stroke="#4c78a8" stroke-width="1.5" opacity="1"/></g><g class="mark-text role-legend-label" pointer-events="none"><text text-anchor="start" transform="translate(16,9)" font-family="sans-serif" font-size="10px" fill="#000" opacity="1">Best Case</text></g></g><path class="foreground" aria-hidden="true" d="" pointer-events="none" display="none"/></g><g transform="translate(0,13)"><path class="background" aria-hidden="true" d="M0,0h79.359375v11h-79.359375Z" pointer-events="none" opacity="1"/><g><g class="mark-symbol role-legend-symbol" pointer-events="none"><path transform="translate(6,6)" d="M-5,0L5,0" stroke="#f58518" stroke-width="1.5" opacity="1"/></g><g class="mark-text role-legend-label" pointer-events="none"><text text-anchor="start" transform="translate(16,9)" font-family="sans-serif" font-size="10px" fill="#000" opacity="1">Reverse Case</text></g></g><path class="foreground" aria-hidden="true" d="" pointer-events="none" display="none"/></g><g transform="translate(0,26)"><path class="background" aria-hidden="true" d="M0,0h79.359375v11h-79.359375Z" pointer-events="none" opacity="1"/><g><g class="mark-symbol role-legend-symbol" pointer-events="none"><path transform="translate(6,6)" d="M-5,0L5,0" stroke="#e45756" stroke-width="1.5" opacity="1"/></g><g class="mark-text role-legend-label" pointer-events="none"><text text-anchor="start" transform="translate(16,9)" font-family="sans-serif" font-size="10px" fill="#000" opacity="1">Worst Case</text></g></g><path class="foreground" aria-hidden="true" d="" pointer-events="none" display="none"/></g></g></g><path class="foreground" aria-hidden="true" d="" pointer-events="none" display="none"/></g></g><g class="mark-text role-legend-title" pointer-events="none"><text text-anchor="start" transform="translate(0,9)" font-family="sans-serif" font-size="11px" font-weight="bold" fill="#000" opacity="1">Cases</text></g></g><path class="foreground" aria-hidden="true" d="" pointer-events="none" display="none"/></g></g></g><path class="foreground" aria-hidden="true" d="" display="none"/></g></g></g></svg>